<svg xmlns="http://www.w3.org/2000/svg" viewBox="0 0 500 500"><g id="freepik--background-complete--inject-71"><rect y="382.4" width="500" height="0.25" style="fill:#ebebeb"></rect><rect x="416.78" y="398.49" width="33.12" height="0.25" style="fill:#ebebeb"></rect><rect x="322.53" y="401.21" width="8.69" height="0.25" style="fill:#ebebeb"></rect><rect x="396.59" y="389.21" width="19.19" height="0.25" style="fill:#ebebeb"></rect><rect x="52.46" y="390.89" width="43.19" height="0.25" style="fill:#ebebeb"></rect><rect x="104.56" y="390.89" width="6.33" height="0.25" style="fill:#ebebeb"></rect><rect x="131.47" y="395.11" width="93.68" height="0.25" style="fill:#ebebeb"></rect><path d="M237,337.8H43.91a5.71,5.71,0,0,1-5.7-5.71V60.66A5.71,5.71,0,0,1,43.91,55H237a5.71,5.71,0,0,1,5.71,5.71V332.09A5.71,5.71,0,0,1,237,337.8ZM43.91,55.2a5.46,5.46,0,0,0-5.45,5.46V332.09a5.46,5.46,0,0,0,5.45,5.46H237a5.47,5.47,0,0,0,5.46-5.46V60.66A5.47,5.47,0,0,0,237,55.2Z" style="fill:#ebebeb"></path><path d="M453.31,337.8H260.21a5.72,5.72,0,0,1-5.71-5.71V60.66A5.72,5.72,0,0,1,260.21,55h193.1A5.71,5.71,0,0,1,459,60.66V332.09A5.71,5.71,0,0,1,453.31,337.8ZM260.21,55.2a5.47,5.47,0,0,0-5.46,5.46V332.09a5.47,5.47,0,0,0,5.46,5.46h193.1a5.47,5.47,0,0,0,5.46-5.46V60.66a5.47,5.47,0,0,0-5.46-5.46Z" style="fill:#ebebeb"></path><polygon points="386.31 381.42 435.8 381.42 425.8 207.82 396.31 207.82 386.31 381.42" style="fill:#f0f0f0"></polygon><rect x="394.24" y="203.61" width="33.63" height="8.97" style="fill:#ebebeb"></rect><polygon points="326.31 381.42 375.8 381.42 365.8 207.82 336.31 207.82 326.31 381.42" style="fill:#f0f0f0"></polygon><rect x="334.24" y="203.61" width="33.63" height="8.97" style="fill:#ebebeb"></rect><polygon points="216.05 302 216.05 289.78 184.94 302 184.94 289.78 153.84 302 153.84 289.78 122.73 302 122.73 289.78 85.19 304.52 84.82 304.52 84.82 219.2 65.51 219.2 65.51 381.42 72.79 381.42 84.82 381.42 247.16 381.42 247.16 313.42 247.16 304.52 247.16 289.78 216.05 302" style="fill:#e0e0e0"></polygon><rect x="178.57" y="337.34" width="94.45" height="44.07" style="fill:#f0f0f0"></rect><path d="M165.13,336.44H149.49a4,4,0,0,0-4.05,4.05v30.85a4.05,4.05,0,0,0,3.08,3.92v6.16h2.58v-6H156v6h2.58v-6h4.92v6h2.58v-6.16a4.05,4.05,0,0,0,3.08-3.92V340.49A4,4,0,0,0,165.13,336.44Z" style="fill:#f0f0f0"></path><path d="M136.25,336.44H120.6a4,4,0,0,0-4,4.05v30.85a4,4,0,0,0,3.08,3.92v6.16h2.58v-6h4.92v6h2.58v-6h4.92v6h2.58v-6.16a4,4,0,0,0,3.07-3.92V340.49A4,4,0,0,0,136.25,336.44Z" style="fill:#f0f0f0"></path><path d="M107.37,336.44H91.72a4,4,0,0,0-4,4.05v30.85a4.05,4.05,0,0,0,3.08,3.92v6.16h2.58v-6h4.92v6h2.58v-6h4.92v6h2.58v-6.16a4,4,0,0,0,3.08-3.92V340.49A4,4,0,0,0,107.37,336.44Z" style="fill:#f0f0f0"></path><rect x="338.34" y="354.11" width="53.8" height="27.31" style="fill:#e0e0e0"></rect><rect x="279.61" y="354.11" width="53.8" height="27.31" style="fill:#e0e0e0"></rect><rect x="398.82" y="354.11" width="53.8" height="27.31" style="fill:#e0e0e0"></rect><path d="M83.55,192.44c-.2-3.8,8.11-5.39,9.69-2.22s-1.58,5.54-1.58,5.54,4.75,1.9.79,4.8-5.54,0-5.54,0-4.54,4.1-5.73,2.52,1.19-2.82,1.19-2.82-3.83.24-3.3-3.51S83.55,192.44,83.55,192.44Z" style="fill:#e0e0e0"></path><path d="M71.53,210.17c-.1-1.9,4-2.69,4.84-1.11a2.33,2.33,0,0,1-.79,2.77s2.37.95.4,2.4-2.77,0-2.77,0-2.28,2.05-2.87,1.26.59-1.41.59-1.41-1.91.12-1.65-1.76A2.69,2.69,0,0,1,71.53,210.17Z" style="fill:#e0e0e0"></path><path d="M69.92,170.54c-.29-5.46,11.64-7.74,13.91-3.19s-2.27,8-2.27,8,6.81,2.73,1.13,6.9-8,0-8,0-6.53,5.87-8.23,3.6,1.7-4,1.7-4-5.49.35-4.73-5S69.92,170.54,69.92,170.54Z" style="fill:#e0e0e0"></path><path d="M354.91,173.66c-.2-3.8,8.11-5.39,9.69-2.22S363,177,363,177s4.75,1.9.79,4.8-5.53,0-5.53,0-4.55,4.1-5.74,2.51,1.19-2.81,1.19-2.81-3.83.24-3.3-3.51S354.91,173.66,354.91,173.66Z" style="fill:#e0e0e0"></path><path d="M342.89,191.39c-.1-1.9,4.05-2.69,4.84-1.11a2.33,2.33,0,0,1-.79,2.77s2.38.95.4,2.4-2.77,0-2.77,0-2.28,2.05-2.87,1.26.59-1.41.59-1.41-1.91.12-1.65-1.76A2.68,2.68,0,0,1,342.89,191.39Z" style="fill:#e0e0e0"></path><path d="M341.28,151.76c-.29-5.46,11.64-7.74,13.91-3.19s-2.27,8-2.27,8,6.81,2.72,1.13,6.9-7.95,0-7.95,0-6.53,5.87-8.23,3.6,1.7-4,1.7-4-5.49.35-4.73-5S341.28,151.76,341.28,151.76Z" style="fill:#e0e0e0"></path><path d="M414.52,173.92c-.2-3.8,8.1-5.39,9.69-2.22s-1.59,5.54-1.59,5.54,4.75,1.9.8,4.81-5.54,0-5.54,0-4.55,4.09-5.74,2.51,1.19-2.82,1.19-2.82-3.83.25-3.3-3.51S414.52,173.92,414.52,173.92Z" style="fill:#e0e0e0"></path><path d="M402.49,191.65c-.1-1.9,4.05-2.69,4.85-1.11a2.33,2.33,0,0,1-.8,2.77s2.38.95.4,2.4-2.77,0-2.77,0-2.27,2-2.87,1.26.6-1.41.6-1.41-1.92.12-1.65-1.75A2.68,2.68,0,0,1,402.49,191.65Z" style="fill:#e0e0e0"></path><path d="M400.88,152c-.29-5.46,11.64-7.73,13.91-3.19s-2.27,7.95-2.27,7.95,6.81,2.73,1.14,6.9-8,0-8,0-6.53,5.88-8.24,3.61,1.71-4,1.71-4-5.49.34-4.74-5.05S400.88,152,400.88,152Z" style="fill:#e0e0e0"></path><path d="M134.94,103.17a5.62,5.62,0,0,1,5.62-5.62,5.38,5.38,0,0,1,1.62.24,12.36,12.36,0,0,1-.13-1.73A11.92,11.92,0,0,1,154,84.15a12.14,12.14,0,0,1,2.19.2,10.41,10.41,0,0,1,19.31,5.27h.17a9.6,9.6,0,0,1,0,19.19H140.41A5.61,5.61,0,0,1,134.94,103.17Z" style="fill:#f5f5f5"></path><path d="M242,158.24a5.63,5.63,0,0,1,5.62-5.63,5.72,5.72,0,0,1,1.62.24,12.25,12.25,0,0,1-.13-1.73A11.92,11.92,0,0,1,261,139.21a12.13,12.13,0,0,1,2.19.21,10.41,10.41,0,0,1,19.31,5.26h.17a9.6,9.6,0,0,1,0,19.19H247.48A5.63,5.63,0,0,1,242,158.24Z" style="fill:#f5f5f5"></path><path d="M138.29,209a5.63,5.63,0,0,1,5.63-5.63,5.7,5.7,0,0,1,1.61.24,12.26,12.26,0,0,1-.12-1.73A11.91,11.91,0,0,1,157.32,190a12.13,12.13,0,0,1,2.19.21,10.41,10.41,0,0,1,19.31,5.26H179a9.6,9.6,0,1,1,0,19.19H143.76A5.63,5.63,0,0,1,138.29,209Z" style="fill:#f5f5f5"></path><path d="M402.07,140.45a3.4,3.4,0,0,1,3.4-3.4,3.52,3.52,0,0,1,1,.14,7.21,7.21,0,0,1,8.45-8.12,6.29,6.29,0,0,1,11.67,3.18h.1a5.8,5.8,0,1,1,0,11.6H405.38A3.4,3.4,0,0,1,402.07,140.45Z" style="fill:#f5f5f5"></path><path d="M78.22,144.62a3.4,3.4,0,0,1,3.39-3.4,3.52,3.52,0,0,1,1,.14A7.21,7.21,0,0,1,91,133.24a6.29,6.29,0,0,1,11.67,3.19h.1a5.8,5.8,0,0,1,0,11.6H81.52A3.39,3.39,0,0,1,78.22,144.62Z" style="fill:#f5f5f5"></path><path d="M336.92,104.31a3.41,3.41,0,0,1,3.4-3.4,3.19,3.19,0,0,1,1,.15,7.17,7.17,0,0,1,8.45-8.12,6.29,6.29,0,0,1,11.67,3.18h.1a5.8,5.8,0,1,1,0,11.6H340.23A3.41,3.41,0,0,1,336.92,104.31Z" style="fill:#f5f5f5"></path></g><g id="freepik--Shadow--inject-71"><ellipse id="freepik--path--inject-71" cx="330.72" cy="438.44" rx="105.08" ry="11.32" style="fill:#f5f5f5"></ellipse></g><g id="freepik--Bus--inject-71"><path d="M433.39,323.77v42.57a8.39,8.39,0,0,1-8.38,8.38H198.87a37.83,37.83,0,0,1-5.73-.44A37.35,37.35,0,0,1,187,372.8l-41.09-13.62V265.59a11.9,11.9,0,0,1,11.9-11.89H381.88c2.11,0,7.6,4.76,14.25,11.89,12.07,13,28,33.73,34.39,48C432.33,317.61,433.39,321.11,433.39,323.77Z" style="fill:#FF409E"></path><g style="isolation:isolate;opacity:0.6000000000000001"><path d="M433.39,323.77v42.57a8.39,8.39,0,0,1-8.38,8.38H198.87a37.83,37.83,0,0,1-5.73-.44A37.35,37.35,0,0,1,187,372.8l-41.09-13.62V265.59a11.9,11.9,0,0,1,11.9-11.89H381.88c2.11,0,7.6,4.76,14.25,11.89,12.07,13,28,33.73,34.39,48C432.33,317.61,433.39,321.11,433.39,323.77Z" style="fill:#fff"></path></g><g style="opacity:0.2"><rect x="274.63" y="265.59" width="65.91" height="38.52"></rect><path d="M415.58,304.7a63.92,63.92,0,0,0,14.94,8.88c-6.41-14.26-22.32-35-34.39-48H389C397,275,409.39,290.71,415.58,304.7Z"></path><rect x="213.02" y="265.59" width="58.28" height="38.52"></rect><rect x="145.91" y="265.59" width="63.78" height="38.52"></rect><path d="M384.55,265.59H352.19v38.52h59.45C404.87,290,391.93,274.1,384.55,265.59Z"></path></g><g style="opacity:0.1"><path d="M370.05,371.12H348.59V262.06H385.3l.13.16c.21.26,21.38,26.67,29.77,44.59l0,.18v35.18l-.19.12Zm-20.63-.84h20.39l44.6-28.57V307.08c-8-17.11-27.75-42-29.51-44.18H349.42Z"></path></g><rect x="423.26" y="355.33" width="13.2" height="21.75" rx="2.19" style="fill:#263238"></rect><rect x="140.41" y="340.99" width="13.2" height="21.75" rx="2.19" style="fill:#263238"></rect><path d="M241.75,370.07a23.81,23.81,0,0,1-.45,4.65H198.87a37.83,37.83,0,0,1-5.73-.44,24.49,24.49,0,1,1,48.61-4.21Z" style="fill:#263238"></path><path d="M417.08,370.07a23.81,23.81,0,0,1-.45,4.65H368.56a23.81,23.81,0,0,1-.45-4.65,24.49,24.49,0,0,1,49,0Z" style="fill:#263238"></path><path d="M422,323.93h0a2.15,2.15,0,0,1,1.9,1.14l6.68,12.56a14,14,0,0,1,1.62,6.53v7.42a2.14,2.14,0,0,1-2.14,2.15h-.32a9.88,9.88,0,0,1-9.88-9.88V326.08A2.14,2.14,0,0,1,422,323.93Z" style="fill:#FF409E"></path><path d="M363.18,316.59h-6.79a2.84,2.84,0,0,1-2.84-2.85h0a2.84,2.84,0,0,1,2.84-2.84h6.79a2.84,2.84,0,0,1,2.84,2.84h0A2.84,2.84,0,0,1,363.18,316.59Z" style="fill:#e0e0e0"></path><g style="opacity:0.1"><path d="M343.42,370.49H272.19V262.06h71.23ZM273,369.65h69.55V262.9H273Z"></path></g><path d="M201.78,334.05c-1.51,2.12-38.87-11.78-55.87-15v-7.28c8.28,1.45,24.53,5,39,12.19,20.44,10.21-.12-10.48,4.57-11.17s48.88,20.49,48.88,20.49l1.44,5.58s-32.64-14.56-40.37-16.76S203.49,331.66,201.78,334.05Z" style="fill:#ebebeb"></path><rect x="145.92" y="309.04" width="7.38" height="29.79" rx="1.84" style="fill:#FF409E"></rect><g style="isolation:isolate;opacity:0.8"><path d="M422,323.93h0a2.15,2.15,0,0,1,1.9,1.14l6.68,12.56a14,14,0,0,1,1.62,6.53v7.42a2.14,2.14,0,0,1-2.14,2.15h-.32a9.88,9.88,0,0,1-9.88-9.88V326.08A2.14,2.14,0,0,1,422,323.93Z" style="fill:#fff"></path></g><g style="isolation:isolate;opacity:0.8"><rect x="145.92" y="309.04" width="7.38" height="29.79" rx="1.84" style="fill:#fff"></rect></g><g style="opacity:0.2"><path d="M241.75,370.07a23.81,23.81,0,0,1-.45,4.65H198.87a37.83,37.83,0,0,1-5.73-.44,24.49,24.49,0,1,1,48.61-4.21Z" style="fill:#fff"></path></g><g style="opacity:0.2"><path d="M417.08,370.07a23.81,23.81,0,0,1-.45,4.65H368.56a23.81,23.81,0,0,1-.45-4.65,24.49,24.49,0,0,1,49,0Z" style="fill:#fff"></path></g><circle cx="392.6" cy="369.47" r="20.68" style="fill:#263238"></circle><g style="opacity:0.2"><circle cx="392.6" cy="369.47" r="13.84" transform="translate(-74.38 100.08) rotate(-13.28)" style="fill:#fff"></circle></g><circle cx="217.67" cy="369.47" r="20.68" style="fill:#263238"></circle><g style="opacity:0.2"><circle cx="217.67" cy="369.47" r="13.84" transform="translate(-197.5 262.13) rotate(-45)" style="fill:#fff"></circle></g><path d="M93.46,249.2A9.45,9.45,0,0,0,81,258.88a6.35,6.35,0,1,0-6.52,10.52l.16,0a9.29,9.29,0,0,0-.71,1.57A9.47,9.47,0,0,0,88.76,281.5a8.69,8.69,0,0,0,13.88-9.81,8.69,8.69,0,0,0-1.48-15.79,9.21,9.21,0,0,0-1.69-.4A9.42,9.42,0,0,0,93.46,249.2Z" style="fill:#263238"></path><path d="M52.78,350.07A9.44,9.44,0,0,0,68.42,348a6.49,6.49,0,0,0,1.34,2.52,6.35,6.35,0,1,0,9.58-8.34l-.12-.12a10.33,10.33,0,0,0,1.41-1A9.47,9.47,0,0,0,73,324.49a8.51,8.51,0,0,0-1.74-3.11A8.69,8.69,0,0,0,56.12,326a8.69,8.69,0,0,0-6.65,14.41,8.88,8.88,0,0,0,1.27,1.19A9.41,9.41,0,0,0,52.78,350.07Z" style="fill:#263238"></path><path d="M139,316.43a5.65,5.65,0,0,0-3.9-7,5.73,5.73,0,0,0-2.28-.16,3.8,3.8,0,1,0-6.49-3.56s0,.07,0,.1a5.6,5.6,0,0,0-1-.37,5.66,5.66,0,0,0-5.79,9.2,5.26,5.26,0,0,0-1,1.89,5.21,5.21,0,0,0,7.3,6.09,5.19,5.19,0,0,0,9.38-1.4,4.55,4.55,0,0,0,.18-1A5.63,5.63,0,0,0,139,316.43Z" style="fill:#263238"></path><path d="M93.46,249.2A9.45,9.45,0,0,0,81,258.88a6.35,6.35,0,1,0-6.52,10.52l.16,0a9.29,9.29,0,0,0-.71,1.57A9.47,9.47,0,0,0,88.76,281.5a8.69,8.69,0,0,0,13.88-9.81,8.69,8.69,0,0,0-1.48-15.79,9.21,9.21,0,0,0-1.69-.4A9.42,9.42,0,0,0,93.46,249.2Z" style="fill:#fff;isolation:isolate;opacity:0.8"></path><path d="M52.78,350.07A9.44,9.44,0,0,0,68.42,348a6.49,6.49,0,0,0,1.34,2.52,6.35,6.35,0,1,0,9.58-8.34l-.12-.12a10.33,10.33,0,0,0,1.41-1A9.47,9.47,0,0,0,73,324.49a8.51,8.51,0,0,0-1.74-3.11A8.69,8.69,0,0,0,56.12,326a8.69,8.69,0,0,0-6.65,14.41,8.88,8.88,0,0,0,1.27,1.19A9.41,9.41,0,0,0,52.78,350.07Z" style="fill:#fff;isolation:isolate;opacity:0.8"></path><path d="M139,316.43a5.65,5.65,0,0,0-3.9-7,5.73,5.73,0,0,0-2.28-.16,3.8,3.8,0,1,0-6.49-3.56s0,.07,0,.1a5.6,5.6,0,0,0-1-.37,5.66,5.66,0,0,0-5.79,9.2,5.26,5.26,0,0,0-1,1.89,5.21,5.21,0,0,0,7.3,6.09,5.19,5.19,0,0,0,9.38-1.4,4.55,4.55,0,0,0,.18-1A5.63,5.63,0,0,0,139,316.43Z" style="fill:#fff;isolation:isolate;opacity:0.8"></path><g style="opacity:0.4"><rect x="423.26" y="355.33" width="13.2" height="21.75" rx="2.19" style="fill:#fff"></rect></g><g style="opacity:0.4"><rect x="140.41" y="340.99" width="13.2" height="21.75" rx="2.19" style="fill:#fff"></rect></g></g><g id="freepik--Car--inject-71"><path d="M277.12,365.78s4.84-5.06,9.37,1.77c0,0,3.78-12.06,17.42-8.18,0,0-7.55-20.47,11.52-25.73s27.91,4.28,27.91,4.28-2.06-16.22,14.9-18.19,19.84,13.91,19.84,13.91,13.09-8.9,19.5,2.14-.91,17.1-.91,17.1,9.62,6.83,3.54,17.7-22.13,6.36-22.13,6.36,0,6.06-7.66,9.2-21.64-12.53-21.64-12.53-4.17,8.27-18.58,9.24-17.85-10-17.85-10-2.92,7.79-9.47,8.57-8.84-7.3-8.84-7.3-.19,7-6.28,7.3-8.06-8.57-8.06-8.57a9.63,9.63,0,0,1-4.09-1.18C273.84,370.58,277.12,365.78,277.12,365.78Z" style="fill:#263238"></path><path d="M277.12,365.78s4.84-5.06,9.37,1.77c0,0,3.78-12.06,17.42-8.18,0,0-7.55-20.47,11.52-25.73s27.91,4.28,27.91,4.28-2.06-16.22,14.9-18.19,19.84,13.91,19.84,13.91,13.09-8.9,19.5,2.14-.91,17.1-.91,17.1,9.62,6.83,3.54,17.7-22.13,6.36-22.13,6.36,0,6.06-7.66,9.2-21.64-12.53-21.64-12.53-4.17,8.27-18.58,9.24-17.85-10-17.85-10-2.92,7.79-9.47,8.57-8.84-7.3-8.84-7.3-.19,7-6.28,7.3-8.06-8.57-8.06-8.57a9.63,9.63,0,0,1-4.09-1.18C273.84,370.58,277.12,365.78,277.12,365.78Z" style="fill:#fff;isolation:isolate;opacity:0.8"></path><polygon points="83.07 376.94 267.13 376.94 263.45 343.97 210.43 332.62 161.15 341.21 101.78 347.04 87.06 363.91 83.07 376.94" style="fill:#263238"></polygon><polygon points="83.07 376.94 267.13 376.94 263.45 343.97 210.43 332.62 161.15 341.21 101.78 347.04 87.06 363.91 83.07 376.94" style="isolation:isolate;opacity:0.2"></polygon><path d="M134.29,376.94a19.48,19.48,0,1,1-19.47-19.47A19.48,19.48,0,0,1,134.29,376.94Z" style="fill:#263238"></path><circle cx="114.82" cy="376.94" r="13.04" transform="translate(-135.51 72.63) rotate(-22.5)" style="isolation:isolate;opacity:0.2"></circle><path d="M261.44,376.94A19.48,19.48,0,1,1,242,357.47,19.48,19.48,0,0,1,261.44,376.94Z" style="fill:#263238"></path><circle cx="241.97" cy="376.94" r="13.04" transform="translate(-195.67 281.5) rotate(-45)" style="isolation:isolate;opacity:0.2"></circle><path d="M279.7,359.61l-2.14,15.23-12,3.78s-.31-25.74-26.36-25.74-22.7,30.67-22.7,30.67H212l-8.59-3.69H147.13l-4.9,3.69h-3.32s2.76-30.67-24.1-30.67-23.44,30.67-23.44,30.67L76,376.94,74.5,361.47l6.42-4,1.55-9.4c.68-.53,1.39-1,2.11-1.49,18-12,42.51-13.64,42.51-13.64,21.12-21.49,29.68-24.53,29.68-24.53,48.47-3.38,94.71,1.83,94.71,1.83l14.11,18.08,3.32,2.7,3.44,2.82a76.57,76.57,0,0,1,1.52,19Z" style="fill:#FF409E"></path><path d="M97.91,347.64l-10.76,9.83H80.92l1.55-9.4c.68-.53,1.39-1,2.11-1.49l7.81-1.17Z" style="fill:#fff;isolation:isolate;opacity:0.6000000000000001"></path><path d="M273.87,352.88l-3.9-1.46c0-8.15-4.9-16.34-4.9-16.34l3.84-4.06,3.44,2.82A76.57,76.57,0,0,1,273.87,352.88Z" style="fill:#fff;isolation:isolate;opacity:0.6000000000000001"></path><path d="M265.59,328.32c-25.52,6.11-138.5,4.62-138.5,4.62.65-.65,1.28-1.3,1.93-1.92,11.63-11.67,19.19-17.43,23.44-20.19a22,22,0,0,1,4.31-2.42c48.47-3.38,94.71,1.83,94.71,1.83Z" style="fill:#263238"></path><path d="M157.73,310.83,139.31,331H129c11.63-11.67,19.19-17.43,23.44-20.19Z" style="fill:#fff;isolation:isolate;opacity:0.6000000000000001"></path><polygon points="144.52 331.01 160.77 310.82 185 310.82 183.16 331.01 144.52 331.01" style="fill:#fff;isolation:isolate;opacity:0.6000000000000001"></polygon><path d="M189,331l2.15-20.2h33.43l5.83,18.31S210.15,331,189,331Z" style="fill:#fff;isolation:isolate;opacity:0.6000000000000001"></path><path d="M228.49,310.82l6.2,17.82s19.63-1.23,22.39-2.46l-8.22-11.09c-1.41-1.9-3.66-2.66-6-3A106.63,106.63,0,0,0,228.49,310.82Z" style="fill:#fff;isolation:isolate;opacity:0.6000000000000001"></path><path d="M279.7,359.61l-2.14,15.23-12,3.78s-.31-25.74-26.36-25.74-22.7,30.67-22.7,30.67H212l-8.59-3.69H147.13l-4.9,3.69h-3.32s2.76-30.67-24.1-30.67-23.44,30.67-23.44,30.67L76,376.94,74.5,361.47H87.15a35.36,35.36,0,0,1,29.46-15c20.25,0,26.76,15,26.76,15h64.94s11-15.26,27.3-16.06,25.83,6,25.83,6H270l3.9,1.46Z" style="isolation:isolate;opacity:0.2"></path></g><g id="freepik--Floor--inject-71"><path d="M406.63,400.41v11.5H82.43v-11.5a3.43,3.43,0,0,1,3.4-3.61H403.24A3.42,3.42,0,0,1,406.63,400.41Z" style="fill:#263238"></path><rect x="100.91" y="396.8" width="20.16" height="15.12" style="fill:#FF409E"></rect><rect x="139.55" y="396.8" width="19.32" height="15.12" style="fill:#FF409E"></rect><rect x="177.34" y="396.8" width="20.16" height="15.12" style="fill:#FF409E"></rect><rect x="215.98" y="396.8" width="19.32" height="15.12" style="fill:#FF409E"></rect><rect x="253.77" y="396.8" width="19.32" height="15.12" style="fill:#FF409E"></rect><rect x="291.57" y="396.8" width="20.16" height="15.12" style="fill:#FF409E"></rect><rect x="330.2" y="396.8" width="19.32" height="15.12" style="fill:#FF409E"></rect><rect x="368" y="396.8" width="20.16" height="15.12" style="fill:#FF409E"></rect><g style="isolation:isolate;opacity:0.6000000000000001"><rect x="100.91" y="396.8" width="20.16" height="15.12" style="fill:#fff"></rect><rect x="139.55" y="396.8" width="19.32" height="15.12" style="fill:#fff"></rect><rect x="177.34" y="396.8" width="20.16" height="15.12" style="fill:#fff"></rect><rect x="215.98" y="396.8" width="19.32" height="15.12" style="fill:#fff"></rect><rect x="253.77" y="396.8" width="19.32" height="15.12" style="fill:#fff"></rect><rect x="291.57" y="396.8" width="20.16" height="15.12" style="fill:#fff"></rect><rect x="330.2" y="396.8" width="19.32" height="15.12" style="fill:#fff"></rect><rect x="368" y="396.8" width="20.16" height="15.12" style="fill:#fff"></rect></g><path d="M406.63,400.41v11.5H82.43v-11.5a3.43,3.43,0,0,1,3.4-3.61H403.24A3.42,3.42,0,0,1,406.63,400.41Z" style="fill:#fff;isolation:isolate;opacity:0.2"></path></g><g id="freepik--Character--inject-71"><path d="M339,227.22c-16.8-.18-35,4.28-35,4.28-3.92,28.07,3.31,58.11,3.31,58.11l41.7-6.26c-4-23.81-3.92-40.53-3.41-49.1A6.67,6.67,0,0,0,339,227.22Z" style="fill:#FF409E"></path><path d="M349.06,283.35l-41.71,6.27s-7.22-30.05-3.3-58.12c0,0,18.18-4.47,35-4.28a6.66,6.66,0,0,1,6.62,7c0,.78-.09,1.64-.13,2.56-.1,2.58-.15,5.68-.08,9.3A250,250,0,0,0,349.06,283.35Z" style="fill:#fff;opacity:0.8"></path><path d="M345.44,246.11c-4-2.76-5.26-7.84-5.26-7.84a7.38,7.38,0,0,1,5.34-1.46C345.42,239.39,345.37,242.49,345.44,246.11Z" style="isolation:isolate;opacity:0.2"></path><path d="M347.35,410.32c.92,4.56,4.56,17.47,4.59,20.89,2.88,2.81,5.62,2.75,6.62.26s-1.3-20.64-1.3-20.64Z" style="fill:#ff8b7b"></path><path d="M347.49,360.23c-5.07-33.34-3.26-51.89-5.44-67.58l-34-.2c0,5.93,4.42,30.06,19.13,67.4,8.47,21.51,20.49,58.36,20.49,58.36l10.6-2.87S355.9,386.19,347.49,360.23Z" style="fill:#263238"></path><path d="M324.45,311.55s-1.86,15.21-3.23,32.44q1.84,5.25,4,11c9.55-14.17,14.24-34.12,15.05-42.05Z" style="opacity:0.2"></path><path d="M338.17,436.59s11.21-3.31,12-7.72a.77.77,0,0,1,.91-.65l8.14,1.37a1.07,1.07,0,0,1,.83.72l2.48,7.92-2.3.08-.85-1.14-1,1.19c-12.5.39-17.9.43-20.4-.27C337.64,437,338.17,436.59,338.17,436.59Z" style="fill:#263238"></path><path d="M359.09,421.17c-1.93.78-9,1.64-10.51,1.27s-2.36-5.8-2.36-5.8,11.12-3.65,12.27-3S359.09,421.17,359.09,421.17Z" style="fill:#FF409E"></path><path d="M359.09,421.17c-1.93.78-9,1.64-10.51,1.27s-2.36-5.8-2.36-5.8,11.12-3.65,12.27-3S359.09,421.17,359.09,421.17Z" style="fill:#fff;opacity:0.30000000000000004"></path><path d="M292.91,407.64c-1.17,4.5-4.94,17-6.42,20.1,1.35,3.79,4.95,3.85,6.94,2.06s8.16-17.35,8.16-17.35Z" style="fill:#ff8b7b"></path><path d="M322.52,356.24c10.4-31.94,26.7-45.82,26.25-63.53l-30.66-.26s-11.92,45-15.67,66.13-11.88,55.51-11.88,55.51l8.63,4.19S319.14,381,322.52,356.24Z" style="fill:#263238"></path><path d="M271,426.13s12,2.18,15.24-1.13a.92.92,0,0,1,1.18-.14l6.53,4.72a.87.87,0,0,1,.33,1l-2.31,7.68-2.11-1L289.7,436l-1.55.57c-11.45-5.17-16.33-7.52-18.17-9.2C270.26,426.24,271,426.13,271,426.13Z" style="fill:#263238"></path><path d="M299.09,423.29c-2-.49-8.92-4.26-9.95-5.46s1.44-6.08,1.44-6.08,10.1,3.33,10.88,4.42S299.09,423.29,299.09,423.29Z" style="fill:#FF409E"></path><path d="M299.09,423.29c-2-.49-8.92-4.26-9.95-5.46s1.44-6.08,1.44-6.08,10.1,3.33,10.88,4.42S299.09,423.29,299.09,423.29Z" style="fill:#fff;opacity:0.30000000000000004"></path><path d="M308.56,296.86a37.14,37.14,0,0,1-1-7.62c-.11-.79,38.17-7.18,41.26-7.47,0,0,2.76,13.47-3.15,25.53C319.08,312.66,310,301.37,308.56,296.86Z" style="fill:#263238"></path><path d="M308.59,289.86c4.11-1.23,31.32-6.6,38.79-7.09a.52.52,0,0,1,.5.29,6.52,6.52,0,0,1,.59,2.35.53.53,0,0,1-.45.55c-2.6.4-16.12,2.55-38.89,7.21a.54.54,0,0,1-.64-.43c-.12-.72-.23-1.75-.28-2.32A.52.52,0,0,1,308.59,289.86Z"></path><path d="M330.92,284.67c.39.52,1,5,1,5l1.93-.48s-.19-3.81-.69-4.8A10.55,10.55,0,0,0,330.92,284.67Z" style="fill:#263238"></path><path d="M311.65,288.43a16.68,16.68,0,0,0,.7,4.6l-1.72.38s-1.05-3.51-.91-4.53A3.83,3.83,0,0,1,311.65,288.43Z" style="fill:#263238"></path><path d="M316.5,292.39a1,1,0,0,1-1-.82l-.51-2.66a1,1,0,0,1,.8-1.19l4.86-1a1,1,0,0,1,.79.17,1,1,0,0,1,.42.69l.38,2.81a1,1,0,0,1-.83,1.13l-4.74.83Zm4.33-4.75-4.86,1a.1.1,0,0,0-.08.12h0l.51,2.66a.1.1,0,0,0,.11.08l4.74-.83a.1.1,0,0,0,.08-.11l-.38-2.81Z" style="fill:#fff"></path><path d="M314.21,234.12l5.67,7,3.62,4.35s10,7.65,20.29,7.56c6.95-.05,9.79-3.06,9.79-3.06l.24-3.86L350,244.35s-3.29,4.07-8.34,4.31a34.15,34.15,0,0,1-16.89-4l.14-4.61,5.34-9.33-1.6.22L324,238.69l-4.27,1.07-4.65-7Z" style="fill:#FF409E"></path><path d="M318.69,226.8s-5.5,3-5.64,4.18,0,9.55.05,9.16,2.81-5.74,2.81-5.74l5.34,4.65,4.32-4.67,4,3.55,3.92-10.61s-4.45-3.79-5.79-3.3S318.69,226.8,318.69,226.8Z" style="fill:#FF409E"></path><path d="M318.69,226.8s-5.5,3-5.64,4.18,0,9.55.05,9.16,2.81-5.74,2.81-5.74l5.34,4.65,4.32-4.67,4,3.55,3.92-10.61s-4.45-3.79-5.79-3.3S318.69,226.8,318.69,226.8Z" style="fill:#fff;opacity:0.7000000000000001"></path><path d="M319.25,210.93c1.81,5.45,5.94,15,11.22,16.3l-9.2,11L315.4,231c3.68-.88,2.12-3.54-1-6.81Z" style="fill:#ebb376"></path><path d="M317.28,216.35l-2.86,7.86a17.31,17.31,0,0,1,2,2.44c3.67.08,6-5.84,5-8.16C321,217.54,318,217.1,317.28,216.35Z" style="isolation:isolate;opacity:0.2"></path><path d="M306.16,202.76c3.57,1.26,3.09,5.1-2.33,12.33-3.72-2.88-6-9.76-4.26-12.1S303.06,201.67,306.16,202.76Z" style="fill:#263238"></path><path d="M320.65,205c1.6,7.48,2.91,11.77.25,16.59-4,7.23-14,6.4-17.82-.46-3.41-6.15-5.46-17.35.92-22.28A10.44,10.44,0,0,1,320.65,205Z" style="fill:#ebb376"></path><path d="M310.23,210.08c.16.6,0,1.17-.41,1.28s-.84-.28-1-.88,0-1.17.39-1.29S310,209.5,310.23,210.08Z" style="fill:#263238"></path><path d="M303.43,212c.16.6,0,1.17-.41,1.28s-.85-.28-1-.89,0-1.17.41-1.28S303.26,211.39,303.43,212Z" style="fill:#263238"></path><path d="M305.73,211.65a22.38,22.38,0,0,1-1.44,5.92,3.59,3.59,0,0,0,3-.27Z" style="fill:#d58745"></path><path d="M310.32,207.07a.33.33,0,0,0,.09-.21.35.35,0,0,0-.37-.36,3.62,3.62,0,0,0-3,1.56.36.36,0,0,0,.1.49h0a.38.38,0,0,0,.5-.12h0a2.84,2.84,0,0,1,2.33-1.21A.37.37,0,0,0,310.32,207.07Z" style="fill:#263238"></path><path d="M299.82,209.34a.36.36,0,0,0,.38.08,2.92,2.92,0,0,1,2.63.25.37.37,0,0,0,.51-.08.35.35,0,0,0-.07-.5,3.62,3.62,0,0,0-3.32-.35.36.36,0,0,0-.22.46h0A.26.26,0,0,0,299.82,209.34Z" style="fill:#263238"></path><path d="M315.9,199.3c-3.11,2.14-.16,9.38,7,14.95,3.52-.26,3.24-9.05,3.24-9.05s-2.58-6.46-3.78-7.39C320,196,318.62,197.44,315.9,199.3Z" style="fill:#263238"></path><path d="M325.79,209.91a7.27,7.27,0,0,1-2.16,5.12c-1.83,1.77-3.95.42-4.46-1.94-.46-2.12-.05-5.61,2.27-6.49S325.8,207.54,325.79,209.91Z" style="fill:#ebb376"></path><path d="M309.17,220.54a.24.24,0,0,1-.23-.17c0-.1-.76-2.51,3-4.49a.23.23,0,0,1,.32.09.24.24,0,0,1-.1.33c-3.35,1.79-2.76,3.84-2.74,3.92a.24.24,0,0,1-.15.3Z" style="fill:#263238"></path><path d="M304.64,202.07s3.4,5.39,8,5.62a10,10,0,0,1-4-3.59,11.91,11.91,0,0,0,5.67,2.68c3.05.35,11.74-1.58,11.74-1.58A10.45,10.45,0,0,0,324,196c-3.62-4.48-17.94-3.61-20.23-.72a10,10,0,0,1,5.07-3.16s-6,.71-6.43,3.54c0,0-4.59,2.34-5.42,5.41s2.27,8.31,1.26,9.3c0,0,.33.51,1.67.06s.05-7.78,1.13-8.67,2.31.94,2.31.94S303.72,200.82,304.64,202.07Z" style="fill:#263238"></path><path d="M316.11,217.45l5.5.25s1.92-2.2,3.39-2.39,5.13-.57,5.13-.57l6,1.93-4.06,6.75-3.9-.55s-5,.49-6-.91l-6.37.22Z" style="fill:#ebb376"></path><path d="M308.16,215.59c-2.06-.09-4.14-.13-6.29,0a28.72,28.72,0,0,0-6.9,1,13,13,0,0,0-2.06.81,8.86,8.86,0,0,0-2.42,1.78,7.46,7.46,0,0,0-1.91,3.61,8,8,0,0,0,.16,3.77,12.76,12.76,0,0,0,2.28,4.33,24.51,24.51,0,0,0,2.49,2.77,48.54,48.54,0,0,0,5.1,4.29c.87.64,1.74,1.26,2.64,1.86l1.37.89c.48.3.92.57,1.56.92l5.11-10.3c-.24-.1-.67-.3-1-.49l-1.18-.61c-.79-.42-1.57-.87-2.34-1.33a41.05,41.05,0,0,1-4.28-2.93,17.32,17.32,0,0,1-1.3-1.15,25.76,25.76,0,0,1,3.61-.89c1.78-.32,3.64-.54,5.53-.7,3.77-.32,7.69-.43,11.49-.39l.55-6C316.26,216.2,312.28,215.79,308.16,215.59Z" style="fill:#FF409E"></path><path d="M320.33,216.8l-.56,6c-3.79-.05-7.71,0-11.48.38-1.88.16-3.75.38-5.53.7a25.72,25.72,0,0,0-3.61.9c.38.36.82.76,1.3,1.14a37.24,37.24,0,0,0,4.28,2.92c.76.47,1.55.91,2.34,1.34l1.18.61c.37.19.8.39,1,.49l-5.11,10.3c-.34-.18-.62-.35-.89-.51s-.44-.28-.67-.41l-1.37-.89c-.9-.61-1.77-1.22-2.65-1.86l-1.14-.87a43.85,43.85,0,0,1-3.95-3.42,24.51,24.51,0,0,1-2.49-2.77,12.76,12.76,0,0,1-2.28-4.33,8,8,0,0,1-.16-3.77,7.38,7.38,0,0,1,1.91-3.61,9.08,9.08,0,0,1,2.42-1.78,13,13,0,0,1,2.06-.81,28.72,28.72,0,0,1,6.9-1c2.15-.1,4.23-.06,6.29,0C312.28,215.79,316.26,216.2,320.33,216.8Z" style="fill:#fff;opacity:0.8"></path><path d="M303.49,238.27c-.07.83-.14,1.81-.2,2.84-.23-.13-.44-.28-.67-.41l-1.37-.89c-.9-.61-1.77-1.22-2.65-1.86l-1.14-.87A31,31,0,0,0,303.49,238.27Z" style="isolation:isolate;opacity:0.2"></path><path d="M411.33,305.37,381.74,323.5l-.25.16-5.31-.76s-6.45-30.08-5.69-31,27.3-16.24,29.76-16.43,8.53,15.4,8.53,15.4l-1.91,1.26.48,1.41Z" style="fill:#263238"></path><path d="M407.35,293.58l-10.42,6.05.95,4.51-4.45,2.56-1.34-5.22-12.35,7.23,2,14.79-.25.16-5.31-.76s-6.45-30.08-5.69-31c1.7,0,8.85,14.47,8.85,14.47l29.44-15.5-1.91,1.26Z" style="isolation:isolate;opacity:0.4"></path><path d="M391.91,298.51l1.89,6,1.58,2.77,3.67-1.95-1.39-2.26a51.25,51.25,0,0,0-2.18-6.58Z" style="fill:#263238"></path><path d="M391.91,298.51l1.89,6,1.58,2.77,3.67-1.95-1.39-2.26a51.25,51.25,0,0,0-2.18-6.58Z" style="fill:#fff;opacity:0.2"></path><path d="M394,304.89a.81.81,0,0,1-.37-.09.85.85,0,0,1-.42-.49l-.83-2.62a.84.84,0,0,1,.47-1l3.24-1.33a.82.82,0,0,1,.67,0,.85.85,0,0,1,.44.51l.8,2.76a.82.82,0,0,1-.51,1l-3.21,1.2h0A.71.71,0,0,1,394,304.89Zm.12-.51h0Zm-.79-2.87.75,2.38,3-1.11-.72-2.5Z" style="fill:#fff"></path><path d="M375.9,288.56s.94-8.68,2.79-11,8.48-4.69,9.81-4.12,5.11,5.71,5.11,5.71l-1.7.36s-3.13-4.75-3.7-4.75-8.12,3.72-8.46,4.39c-1.11,2.18-1.47,10.17-1.47,10.17Z" style="fill:#263238"></path><path d="M378.64,263.21l2.58,4.86s2.87.54,3.79,1.71,3.09,4.12,3.09,4.12L388,278l-5.6,3.73-2.25-5.43s-3-4.09-2.25-5.61l-3.43-5.38Z" style="fill:#ebb376"></path><path d="M340.67,227.26A133.8,133.8,0,0,1,354,232.17c2.2.94,4.39,2,6.63,3.11a36.78,36.78,0,0,1,3.54,2l1,.69a16,16,0,0,1,1.43,1.22,18,18,0,0,1,1.58,2c1.54,2.15,2.69,4.16,3.93,6.21s2.34,4.11,3.46,6.18a137.05,137.05,0,0,1,6.05,12.78l-5.35,3.37c-3.19-3.46-6.13-7.1-9-10.73-1.42-1.84-2.86-3.65-4.24-5.48s-2.83-3.66-4.09-5.21a4.81,4.81,0,0,0-.66-.72.16.16,0,0,0,.07.12l-.47-.25c-.68-.37-1.65-.86-2.6-1.3-1.94-.88-4-1.76-6.08-2.66-4.17-1.77-8.44-3.54-12.58-5.45Z" style="fill:#FF409E"></path><path d="M340.67,227.26A133.8,133.8,0,0,1,354,232.17c2.2.94,4.39,2,6.63,3.11a36.78,36.78,0,0,1,3.54,2l1,.69a16,16,0,0,1,1.43,1.22,18,18,0,0,1,1.58,2c1.54,2.15,2.69,4.16,3.93,6.21s2.34,4.11,3.46,6.18a137.05,137.05,0,0,1,6.05,12.78l-5.35,3.37c-3.19-3.46-6.13-7.1-9-10.73-1.42-1.84-2.86-3.65-4.24-5.48s-2.83-3.66-4.09-5.21a4.81,4.81,0,0,0-.66-.72.16.16,0,0,0,.07.12l-.47-.25c-.68-.37-1.65-.86-2.6-1.3-1.94-.88-4-1.76-6.08-2.66-4.17-1.77-8.44-3.54-12.58-5.45Z" style="fill:#fff;opacity:0.8"></path></g><g id="freepik--Smoke--inject-71"><path d="M383.16,215.76A9.44,9.44,0,0,0,385,229a9.31,9.31,0,0,0,3.46,1.63,6.45,6.45,0,0,0-2.18,1.83,6.35,6.35,0,0,0,10.15,7.63l.1-.14a8.8,8.8,0,0,0,1.27,1.16,9.47,9.47,0,0,0,14.57-10.87,8.69,8.69,0,0,0-5-16.23,8.68,8.68,0,0,0-15.47-3.48A8.13,8.13,0,0,0,391,212,9.44,9.44,0,0,0,383.16,215.76Z" style="fill:#263238"></path><path d="M383.16,215.76A9.44,9.44,0,0,0,385,229a9.31,9.31,0,0,0,3.46,1.63,6.45,6.45,0,0,0-2.18,1.83,6.35,6.35,0,0,0,10.15,7.63l.1-.14a8.8,8.8,0,0,0,1.27,1.16,9.47,9.47,0,0,0,14.57-10.87,8.69,8.69,0,0,0-5-16.23,8.68,8.68,0,0,0-15.47-3.48A8.13,8.13,0,0,0,391,212,9.44,9.44,0,0,0,383.16,215.76Z" style="fill:#fff;isolation:isolate;opacity:0.8"></path><path d="M279.35,304.78a9.43,9.43,0,0,0,5.34,14.85,6.45,6.45,0,0,0-2.18,1.83,6.35,6.35,0,0,0,10.16,7.63l.09-.14a9.46,9.46,0,0,0,15.84-9.7,8.7,8.7,0,0,0-5-16.24,8.71,8.71,0,0,0-16.38-2A9.42,9.42,0,0,0,279.35,304.78Z" style="fill:#263238"></path><path d="M279.35,304.78a9.43,9.43,0,0,0,5.34,14.85,6.45,6.45,0,0,0-2.18,1.83,6.35,6.35,0,0,0,10.16,7.63l.09-.14a9.46,9.46,0,0,0,15.84-9.7,8.7,8.7,0,0,0-5-16.24,8.71,8.71,0,0,0-16.38-2A9.42,9.42,0,0,0,279.35,304.78Z" style="fill:#fff;isolation:isolate;opacity:0.8"></path><path d="M258.05,190.88a6.27,6.27,0,0,0-6.64,8.1,4.29,4.29,0,0,0-1.78-.61,4.21,4.21,0,1,0-.89,8.38h.11a6.12,6.12,0,0,0-.23,1.13,6.29,6.29,0,0,0,11.16,4.59,5.68,5.68,0,0,0,2.25.73,5.77,5.77,0,0,0,5.28-9.12,5.71,5.71,0,0,0,1.85-3.65,5.77,5.77,0,0,0-5.14-6.35,6.32,6.32,0,0,0-1.15,0A6.26,6.26,0,0,0,258.05,190.88Z" style="fill:#263238"></path><path d="M258.05,190.88a6.27,6.27,0,0,0-6.64,8.1,4.29,4.29,0,0,0-1.78-.61,4.21,4.21,0,1,0-.89,8.38h.11a6.12,6.12,0,0,0-.23,1.13,6.29,6.29,0,0,0,11.16,4.59,5.68,5.68,0,0,0,2.25.73,5.77,5.77,0,0,0,5.28-9.12,5.71,5.71,0,0,0,1.85-3.65,5.77,5.77,0,0,0-5.14-6.35,6.32,6.32,0,0,0-1.15,0A6.26,6.26,0,0,0,258.05,190.88Z" style="fill:#fff;isolation:isolate;opacity:0.8"></path></g></svg>